<svg xmlns="http://www.w3.org/2000/svg" width="160" height="23" fill="none" viewBox="0 0 160 23"><path fill="#000" d="M34.604 1.864h-4.046v19.522h12.267v-3.4h-8.22zm14.107 11.331h8.203v-3.34H48.71V5.264h8.881v-3.4H44.665v19.522h12.949v-3.4H48.71zm11.231 8.191h4.047v-7.414h7.804v-3.34h-7.804V5.264h8.65v-3.4H59.942zM73.77 5.264h5.88v16.122h4V5.264h5.871v-3.4H73.77zM95.195 4.7q1.415-.898 3.153-.897.953 0 1.827.27a5.5 5.5 0 0 1 1.603.798q.728.532 1.236 1.302c.339.517.576 1.112.713 1.794h2.316q-.256-1.493-.946-2.681a7.1 7.1 0 0 0-1.719-2.006 7.6 7.6 0 0 0-2.309-1.252 8.5 8.5 0 0 0-2.724-.43q-2.446-.001-4.364 1.22-1.918 1.217-3.013 3.472-1.093 2.252-1.093 5.346c0 2.063.364 3.828 1.093 5.327q1.093 2.247 3.013 3.466t4.364 1.22q1.442.001 2.724-.43a7.6 7.6 0 0 0 2.309-1.252 7 7 0 0 0 1.719-2q.688-1.18.946-2.687h-2.316a5.1 5.1 0 0 1-.713 1.794q-.508.774-1.236 1.302a5.3 5.3 0 0 1-1.603.799q-.874.27-1.827.269-1.738 0-3.153-.897-1.416-.9-2.248-2.64-.83-1.743-.83-4.27c0-1.687.276-3.125.83-4.291q.83-1.748 2.248-2.646m15.688-2.836h-2.316v19.522h11.25V19.29h-8.934zm11.278 19.522h2.316V1.864h-2.316zM132.442 4.7q1.417-.898 3.154-.897.953 0 1.827.27.873.27 1.603.798a5 5 0 0 1 1.236 1.302c.339.517.576 1.112.713 1.794h2.316q-.257-1.493-.947-2.681a7.1 7.1 0 0 0-1.718-2.006 7.6 7.6 0 0 0-2.31-1.252 8.5 8.5 0 0 0-2.723-.43q-2.447-.001-4.365 1.22-1.917 1.22-3.013 3.472-1.092 2.252-1.092 5.346c0 2.063.364 3.828 1.092 5.327q1.094 2.247 3.013 3.466 1.918 1.221 4.365 1.22 1.44.001 2.723-.43a7.6 7.6 0 0 0 2.31-1.252 7 7 0 0 0 1.718-2q.688-1.18.947-2.687h-2.316a5.1 5.1 0 0 1-.713 1.794q-.509.774-1.236 1.302a5.3 5.3 0 0 1-1.603.799q-.874.27-1.827.269-1.737 0-3.154-.897-1.415-.9-2.247-2.64t-.831-4.27c0-1.687.277-3.125.831-4.291q.83-1.748 2.247-2.646M160 1.864h-3.013l-8.623 9.696h-.23V1.864h-2.316v19.522h2.316v-6.315l2.394-2.75 6.667 9.065H160l-8.031-10.716zM3.641 9.81a2.06 2.06 0 0 0-2.945 0 2.15 2.15 0 0 0 0 2.998l8.595 8.749a2.06 2.06 0 0 0 2.945 0 2.15 2.15 0 0 0 0-2.998zm-.087 8.083a2.057 2.057 0 0 0-2.945 0 2.15 2.15 0 0 0 0 2.998l.741.754a2.06 2.06 0 0 0 2.945 0 2.15 2.15 0 0 0 0-2.998zm16.744-16.29a2.06 2.06 0 0 0-2.945 0l-4.327 4.404a2.15 2.15 0 0 0 0 2.998l4.296 4.373a2.06 2.06 0 0 0 2.945 0 2.15 2.15 0 0 0 0-2.998l-2.824-2.874L20.298 4.6a2.15 2.15 0 0 0 0-2.997m-16.638.05a2.06 2.06 0 0 0-2.945 0 2.15 2.15 0 0 0 0 2.998l16.588 16.886a2.06 2.06 0 0 0 2.945 0 2.15 2.15 0 0 0 0-2.997z"/></svg>