<svg xmlns="http://www.w3.org/2000/svg" width="300" height="301" fill="none" viewBox="0 0 300 301"><path stroke="#fff" d="M9.097 239.646c11.462-11.463 30.084-11.463 41.547 0l10.63 10.63c11.463 11.463 11.463 30.085 0 41.547-11.462 11.463-30.084 11.463-41.546 0L9.096 281.192c-11.463-11.462-11.463-30.084 0-41.546Zm1.25-113.944c11.463-11.462 30.085-11.462 41.548 0l123.323 123.323c11.462 11.463 11.462 30.085 0 41.547-11.463 11.463-30.085 11.463-41.547 0L10.348 167.249c-11.463-11.463-11.463-30.084 0-41.547Zm.268-114.97C22.078-.732 40.7-.732 52.163 10.731l238.025 238.025c11.463 11.462 11.463 30.085 0 41.548-11.462 11.462-30.084 11.462-41.546 0L10.615 52.278c-11.463-11.507-11.462-30.085 0-41.547Zm238.741-.715c11.463-11.463 30.085-11.463 41.547 0 11.463 11.462 11.463 30.084 0 41.546l-41.312 41.313.353.353 40.512 40.513c11.463 11.463 11.463 30.084 0 41.547s-30.084 11.463-41.547 0l-61.638-61.64c-11.463-11.462-11.463-30.084 0-41.546z"/></svg>